<svg xmlns="http://www.w3.org/2000/svg" width="543.373" height="259.706" viewBox="0 0 543.373 259.706">
  <g id="Group_44" data-name="Group 44" transform="translate(-4.221 -2.018)">
    <g id="Group_43" data-name="Group 43" transform="translate(4.221 2.018)">
      <path id="Path_29" data-name="Path 29" d="M161.17,226.151l-.558.066-.34.039a15.28,15.28,0,0,0-3.531.868,14.552,14.552,0,0,0,10.43,27.172l.421-.162.421-.162a14.438,14.438,0,0,0-6.843-27.82Zm-56.854-10.926-.774-.446-.268-.154a23.318,23.318,0,0,0-3.432-1.6A21.843,21.843,0,1,0,84.9,254.081l.679.247.45.164a21.739,21.739,0,0,0,18.284-39.267ZM64.511,124.752l.241-.9.071-.266c.23-.862.44-1.8.6-2.691A30.733,30.733,0,0,0,4.873,110.3l-.12.689-.089.5a30.68,30.68,0,0,0,59.846,13.258ZM168,34.55A32.039,32.039,0,0,0,136.442,2.037l-.511-.008-.633-.01c-.7-.008-1.4.006-2.109.044a32.074,32.074,0,0,0,3.434,64.056l.272-.015.9-.046A32.041,32.041,0,0,0,168,34.55ZM68.094,174.519l-.108-.266a30.062,30.062,0,0,0-1.586-3.264,27.116,27.116,0,0,0-47.088,26.9l.434.76.249.434A27.023,27.023,0,0,0,68.5,175.53ZM91.314,83.343l.268-.214.212-.17c.145-.118.415-.338.558-.457A32.638,32.638,0,0,0,50.46,32.443l-.079.066-.394.33a32.631,32.631,0,0,0,41.327,50.5ZM365.63,64.693l.282-.272.087-.085a4.171,4.171,0,1,0-5.944-5.853l-.278.28a4.167,4.167,0,0,0,5.853,5.931Zm61.357-23.584.068,0,.367-.008c.193-.006.417-.017.612-.039a7.244,7.244,0,0,0-1.54-14.406l-.419.044a7.226,7.226,0,0,0,.913,14.41Zm-112.46,72.971.28-.27.066-.066a3.148,3.148,0,0,0-4.509-4.393l-.272.28a3.141,3.141,0,0,0,4.435,4.449Zm207.555-1.4.081.334c.075.307.168.641.264.945a12.893,12.893,0,0,0,24.54-7.92l-.023-.069-.135-.421a12.874,12.874,0,0,0-24.768,6.965ZM499.988,44.41l-.037-.025-.361-.233a10.158,10.158,0,0,0-11.715,16.576l.095.071.282.218c.216.166.457.338.691.488a10.177,10.177,0,1,0,11.045-17.1ZM475.412,214.625l-.26.125-.289.143c-.357.176-.751.384-1.1.587a17.965,17.965,0,0,0,18,31.1l.131-.075.4-.232a17.943,17.943,0,0,0-16.879-31.644Zm61.523-49.49a15.537,15.537,0,0,0-20.688,7.407l-.1.222-.143.3c-.162.347-.33.735-.469,1.1a15.561,15.561,0,1,0,29.072,11.1l.044-.114.162-.424A15.594,15.594,0,0,0,536.935,165.135ZM221.715,34.806l-.424-.388-.945-.868a30.215,30.215,0,0,0-2.414-1.972,29.434,29.434,0,1,0-34.826,47.462l.174.127,1.412,1.04a29.338,29.338,0,0,0,37.023-45.4ZM418.878,221.581l-.353-.081-.307-.069c-.442-.1-.941-.2-1.4-.27a20.355,20.355,0,1,0-6.3,40.22l.2.033.467.073a20.332,20.332,0,0,0,7.688-39.905ZM218.1,196.8l-.3.26a6.754,6.754,0,1,0,9.457,9.616l.264-.291A6.732,6.732,0,0,0,218.1,196.8ZM272.121,87.79l-.27-.287c-.357-.374-.783-.8-1.165-1.16A26.463,26.463,0,0,0,234.531,125l.287.268a26.45,26.45,0,0,0,37.3-37.474Zm97.817,102.449c-.268-.276-.6-.6-.88-.864a22.4,22.4,0,0,0-30.46,32.86l.287.268a22.392,22.392,0,0,0,31.324-31.982Zm-49.272-51.186c-.289-.3-.644-.65-.951-.938a24.356,24.356,0,1,0-33.222,35.626l.287.27a24.346,24.346,0,0,0,34.158-34.675Z" transform="translate(-4.221 -2.018)" fill="#00aaa2"/>
      <g id="Group_42" data-name="Group 42" transform="translate(413.404 75.26)">
        <path id="Path_30" data-name="Path 30" d="M234.458,41.027H218.5V104.86L273.821,138.9l8.511-13.83L234.458,96.349Z" transform="translate(-218.499 -41.027)" fill="#fff" opacity="0.9"/>
      </g>
    </g>
  </g>
</svg>
