<?xml version="1.0"?>
<svg xmlns="http://www.w3.org/2000/svg" xmlns:xlink="http://www.w3.org/1999/xlink" version="1.1" id="Layer_1" x="0px" y="0px" viewBox="0 0 512 512" style="enable-background:new 0 0 512 512;" xml:space="preserve" width="512px" height="512px" class=""><g><path style="fill:#FFFFFF;" d="M256,508C117.048,508,4,394.952,4,256S117.048,4,256,4s252,113.048,252,252S394.952,508,256,508z" data-original="#FFFFFF" class=""/><path style="fill:#FFFFFF" d="M256,8c136.744,0,248,111.256,248,248S392.744,504,256,504S8,392.744,8,256S119.256,8,256,8 M256,0  C114.616,0,0,114.616,0,256s114.616,256,256,256s256-114.616,256-256S397.384,0,256,0L256,0z" data-original="#E04F5F" class="active-path" data-old_color="#E04F5F"/><path style="fill:#32BEA6" d="M256,43.888C138.856,43.888,43.888,138.856,43.888,256S138.856,468.112,256,468.112  S468.112,373.144,468.112,256S373.144,43.888,256,43.888z" data-original="#32BEA6" class="" data-old_color="#32BEA6"/><path style="fill:#FFFFFF;" d="M290.408,261.24v-20.616c21.136-12,35.416-34.672,35.416-60.712  c0-38.568-31.264-69.824-69.824-69.824c-38.568,0-69.824,31.264-69.824,69.824c0,26.04,14.288,48.712,35.416,60.712v20.616  c-65.072,3.04-98.16,47.04-98.16,76.616c0,22.264,0,24.288,0,24.288H256h132.568c0,0,0-2.024,0-24.288  C388.568,308.28,355.48,264.288,290.408,261.24z" data-original="#FFFFFF" class=""/></g> </svg>
